<?xml version="1.0" encoding="UTF-8"?>
<svg width="421px" height="108px" viewBox="0 0 421 108" version="1.1" xmlns="http://www.w3.org/2000/svg" xmlns:xlink="http://www.w3.org/1999/xlink">
    <!-- Generator: Sketch 51.2 (57519) - http://www.bohemiancoding.com/sketch -->
    <title>name</title>
    <desc>Created with Sketch.</desc>
    <defs></defs>
    <g id="name" stroke="none" stroke-width="1" fill="none" fill-rule="evenodd">
        <rect fill="#FFFFFF" x="0" y="0" width="421" height="108"></rect>
        <path d="M156.282471,76.3164062 C155.642819,76.3164062 155.120363,76.5141582 154.715088,76.909668 C154.309812,77.3051778 154.107178,77.8178679 154.107178,78.4477539 C154.107178,79.0678742 154.309812,79.5769023 154.715088,79.9748535 C155.120363,80.3728047 155.642819,80.5717773 156.282471,80.5717773 C156.91724,80.5717773 157.438475,80.3728047 157.846191,79.9748535 C158.253908,79.5769023 158.457764,79.0678742 158.457764,78.4477539 C158.457764,77.8276336 158.253908,77.3173848 157.846191,76.9169922 C157.438475,76.5165996 156.91724,76.3164062 156.282471,76.3164062 Z M159.461182,81.6118164 C159.461182,82.2954136 159.427002,82.7800279 159.358643,83.0656738 C159.290283,83.3513198 159.173097,83.6015614 159.00708,83.8164062 C158.733641,84.1777362 158.350344,84.4523916 157.857178,84.6403809 C157.364011,84.8283701 156.782962,84.9223633 156.114014,84.9223633 C155.55737,84.9223633 155.15088,84.8686529 154.894531,84.7612305 C154.638182,84.6538081 154.51001,84.4829113 154.51001,84.2485352 C154.51001,84.0971672 154.572265,83.9641119 154.696777,83.8493652 C154.82129,83.7346186 154.968993,83.6772461 155.139893,83.6772461 C155.271729,83.6772461 155.474364,83.6955565 155.747803,83.7321777 C156.021242,83.768799 156.228759,83.7871094 156.370361,83.7871094 C157.093021,83.7871094 157.605711,83.6210954 157.908447,83.2890625 C158.211183,82.9570296 158.362549,82.3881876 158.362549,81.5825195 L158.362549,80.6962891 C158.064696,81.0429705 157.735109,81.2968742 157.373779,81.4580078 C157.012449,81.6191414 156.597414,81.699707 156.128662,81.699707 C155.215572,81.699707 154.459964,81.395755 153.861816,80.7878418 C153.263669,80.1799286 152.9646,79.4096726 152.9646,78.4770508 C152.9646,77.5395461 153.272214,76.761966 153.887451,76.1442871 C154.502689,75.5266082 155.2644,75.2177734 156.172607,75.2177734 C156.548586,75.2177734 156.916014,75.2873528 157.274902,75.4265137 C157.633791,75.5656745 157.996336,75.7768541 158.362549,76.0600586 L158.362549,75.5327148 C158.362549,75.4301753 158.395507,75.3544924 158.461426,75.3056641 C158.527344,75.2568357 158.631103,75.2324219 158.772705,75.2324219 L159.878662,75.2324219 C160.073976,75.2324219 160.220458,75.2751461 160.318115,75.3605957 C160.415772,75.4460453 160.4646,75.5742179 160.4646,75.7451172 C160.4646,75.9404307 160.403565,76.077148 160.281494,76.1552734 C160.159423,76.2333988 159.929933,76.2724609 159.593018,76.2724609 L159.461182,76.2724609 L159.461182,81.6118164 Z M164.77124,80.9672852 L167.202881,80.9672852 C167.393311,80.9672852 167.533691,81.007568 167.624023,81.0881348 C167.714356,81.1687016 167.759521,81.2968741 167.759521,81.4726562 C167.759521,81.6728526 167.716797,81.8107906 167.631348,81.8864746 C167.545898,81.9621586 167.388429,82 167.158936,82 L162.368896,82 C162.178466,82 162.034424,81.9560551 161.936768,81.8681641 C161.839111,81.780273 161.790283,81.6484384 161.790283,81.4726562 C161.790283,81.301757 161.840332,81.1748051 161.94043,81.0917969 C162.040528,81.0087886 162.195556,80.9672852 162.405518,80.9672852 L163.679932,80.9672852 L163.679932,76.2724609 L163.181885,76.2724609 C162.70825,76.2724609 162.412842,76.2346195 162.295654,76.1589355 C162.178466,76.0832516 162.119873,75.9453135 162.119873,75.7451172 C162.119873,75.5742179 162.16748,75.4460453 162.262695,75.3605957 C162.357911,75.2751461 162.503173,75.2324219 162.698486,75.2324219 L164.368408,75.2324219 C164.500245,75.2324219 164.600341,75.2580564 164.668701,75.3093262 C164.737061,75.360596 164.77124,75.4350581 164.77124,75.5327148 L164.77124,76.777832 C165.23511,76.1967744 165.718503,75.7646499 166.221436,75.4814453 C166.724368,75.1982408 167.266355,75.0566406 167.847412,75.0566406 C168.281985,75.0566406 168.633544,75.1445304 168.9021,75.3203125 C169.170656,75.4960946 169.304932,75.7231431 169.304932,76.0014648 C169.304932,76.1821298 169.237794,76.3420403 169.103516,76.4812012 C168.969238,76.620362 168.821534,76.6899414 168.6604,76.6899414 C168.548095,76.6899414 168.358888,76.6154793 168.092773,76.4665527 C167.826659,76.3176262 167.588624,76.2431641 167.378662,76.2431641 C166.997801,76.2431641 166.596194,76.3786608 166.173828,76.6496582 C165.751463,76.9206557 165.283938,77.3491182 164.77124,77.9350586 L164.77124,80.9672852 Z M172.014893,78.9384766 C172.053955,79.6416051 172.29199,80.1848125 172.729004,80.5681152 C173.166018,80.9514179 173.762936,81.1430664 174.519775,81.1430664 C175.091067,81.1430664 175.71362,80.99048 176.387451,80.6853027 C177.061283,80.3801254 177.468993,80.2275391 177.610596,80.2275391 C177.757081,80.2275391 177.87915,80.2739253 177.976807,80.3666992 C178.074463,80.4594731 178.123291,80.5742181 178.123291,80.7109375 C178.123291,80.8525398 178.072022,80.981933 177.969482,81.0991211 C177.866943,81.2163092 177.70337,81.3310541 177.47876,81.4433594 C176.990476,81.6826184 176.486331,81.865722 175.966309,81.9926758 C175.446286,82.1196295 174.929934,82.1831055 174.417236,82.1831055 C173.30395,82.1831055 172.412845,81.8620638 171.743896,81.2199707 C171.074948,80.5778776 170.740479,79.7270561 170.740479,78.6674805 C170.740479,77.5883735 171.094479,76.7143588 171.80249,76.0454102 C172.510502,75.3764615 173.433344,75.0419922 174.571045,75.0419922 C175.601324,75.0419922 176.455807,75.3544891 177.134521,75.9794922 C177.813236,76.6044953 178.152588,77.3613237 178.152588,78.25 C178.152588,78.5234389 178.095215,78.7065425 177.980469,78.7993164 C177.865722,78.8920903 177.554446,78.9384766 177.046631,78.9384766 L172.014893,78.9384766 Z M172.051514,77.9790039 L176.81958,77.9790039 C176.746338,77.3979463 176.50342,76.9304217 176.09082,76.576416 C175.678221,76.2224103 175.171634,76.0454102 174.571045,76.0454102 C173.921628,76.0454102 173.374758,76.2163069 172.93042,76.5581055 C172.486082,76.8999041 172.193116,77.3735321 172.051514,77.9790039 Z M181.016357,78.9384766 C181.05542,79.6416051 181.293455,80.1848125 181.730469,80.5681152 C182.167483,80.9514179 182.764401,81.1430664 183.52124,81.1430664 C184.092532,81.1430664 184.715085,80.99048 185.388916,80.6853027 C186.062748,80.3801254 186.470458,80.2275391 186.612061,80.2275391 C186.758546,80.2275391 186.880615,80.2739253 186.978271,80.3666992 C187.075928,80.4594731 187.124756,80.5742181 187.124756,80.7109375 C187.124756,80.8525398 187.073487,80.981933 186.970947,81.0991211 C186.868408,81.2163092 186.704835,81.3310541 186.480225,81.4433594 C185.991941,81.6826184 185.487796,81.865722 184.967773,81.9926758 C184.447751,82.1196295 183.931399,82.1831055 183.418701,82.1831055 C182.305414,82.1831055 181.41431,81.8620638 180.745361,81.2199707 C180.076413,80.5778776 179.741943,79.7270561 179.741943,78.6674805 C179.741943,77.5883735 180.095944,76.7143588 180.803955,76.0454102 C181.511966,75.3764615 182.434809,75.0419922 183.57251,75.0419922 C184.602788,75.0419922 185.457272,75.3544891 186.135986,75.9794922 C186.814701,76.6044953 187.154053,77.3613237 187.154053,78.25 C187.154053,78.5234389 187.09668,78.7065425 186.981934,78.7993164 C186.867187,78.8920903 186.555911,78.9384766 186.048096,78.9384766 L181.016357,78.9384766 Z M181.052979,77.9790039 L185.821045,77.9790039 C185.747802,77.3979463 185.504885,76.9304217 185.092285,76.576416 C184.679685,76.2224103 184.173099,76.0454102 183.57251,76.0454102 C182.923092,76.0454102 182.376223,76.2163069 181.931885,76.5581055 C181.487547,76.8999041 181.194581,77.3735321 181.052979,77.9790039 Z M194.49292,75.6425781 C194.732179,75.6425781 194.906738,75.6840816 195.016602,75.7670898 C195.126465,75.8500981 195.181396,75.9819327 195.181396,76.1625977 C195.181396,76.3334969 195.130127,76.4616695 195.027588,76.5471191 C194.925048,76.6325688 194.771241,76.675293 194.566162,76.675293 L191.599854,76.675293 L191.599854,79.121582 C191.599854,79.9223673 191.703612,80.4497058 191.911133,80.7036133 C192.118653,80.9575208 192.473874,81.0844727 192.976807,81.0844727 C193.421145,81.0844727 193.953366,80.9550794 194.573486,80.6962891 C195.193607,80.4374987 195.576904,80.3081055 195.723389,80.3081055 C195.860108,80.3081055 195.976074,80.3569331 196.071289,80.4545898 C196.166504,80.5522466 196.214111,80.6718743 196.214111,80.8134766 C196.214111,80.9746102 196.154297,81.1149896 196.034668,81.2346191 C195.915038,81.3542486 195.711183,81.4702143 195.423096,81.5825195 C194.944578,81.7729502 194.513674,81.9121089 194.130371,82 C193.747068,82.0878911 193.386965,82.1318359 193.050049,82.1318359 C192.478757,82.1318359 191.999025,82.0402841 191.61084,81.8571777 C191.222654,81.6740714 190.933351,81.4018573 190.74292,81.0405273 C190.645263,80.8696281 190.575684,80.6669934 190.53418,80.4326172 C190.492676,80.198241 190.471924,79.8369165 190.471924,79.3486328 L190.471924,76.675293 L189.226807,76.675293 C189.021727,76.675293 188.872803,76.6350102 188.780029,76.5544434 C188.687255,76.4738766 188.640869,76.3432626 188.640869,76.1625977 C188.640869,75.9624013 188.704345,75.825684 188.831299,75.7524414 C188.958253,75.6791989 189.229246,75.6425781 189.644287,75.6425781 L190.471924,75.6425781 L190.471924,73.7529297 C190.471924,73.5429677 190.517089,73.38794 190.607422,73.2878418 C190.697754,73.1877436 190.838134,73.1376953 191.028564,73.1376953 C191.243409,73.1376953 191.392334,73.1987299 191.475342,73.3208008 C191.55835,73.4428717 191.599854,73.7211892 191.599854,74.1557617 L191.599854,75.6425781 L194.49292,75.6425781 Z M199.605225,80.125 L200.86499,75.7451172 C200.908936,75.5888664 200.958984,75.4899904 201.015137,75.4484863 C201.071289,75.4069822 201.172607,75.3862305 201.319092,75.3862305 L201.648682,75.3862305 C201.790284,75.3862305 201.891601,75.4082029 201.952637,75.4521484 C202.013672,75.496094 202.066162,75.5839837 202.110107,75.7158203 L203.53833,80.125 L204.256104,74.3022461 L203.106201,74.3022461 C202.881591,74.3022461 202.716797,74.263184 202.611816,74.1850586 C202.506835,74.1069332 202.454346,73.9824227 202.454346,73.8115234 C202.454346,73.6259756 202.504394,73.4965824 202.604492,73.4233398 C202.70459,73.3500973 202.891356,73.3134766 203.164795,73.3134766 L205.530518,73.3134766 C205.63794,73.3134766 205.733154,73.3610835 205.816162,73.4562988 C205.89917,73.5515141 205.940674,73.6699212 205.940674,73.8115234 C205.940674,73.9775399 205.894288,74.1008297 205.801514,74.1813965 C205.70874,74.2619633 205.569581,74.3022461 205.384033,74.3022461 L205.296143,74.3022461 L204.256104,81.6264648 C204.241455,81.7778328 204.213379,81.8779294 204.171875,81.9267578 C204.130371,81.9755862 204.063233,82 203.970459,82 L203.450439,82 C203.338134,82 203.252686,81.9780276 203.194092,81.934082 C203.135498,81.8901365 203.084229,81.8071295 203.040283,81.6850586 L201.450928,76.6459961 L200.044678,81.699707 C200.010498,81.821778 199.966553,81.9023436 199.912842,81.9414062 C199.859131,81.9804689 199.771241,82 199.64917,82 L199.099854,82 C199.002197,82 198.930176,81.9768069 198.883789,81.9304199 C198.837402,81.884033 198.804443,81.7778329 198.784912,81.6118164 L197.671631,74.3022461 L197.58374,74.3022461 C197.39331,74.3022461 197.250489,74.2607426 197.155273,74.1777344 C197.060058,74.0947261 197.012451,73.9726571 197.012451,73.8115234 C197.012451,73.6650383 197.051513,73.5454106 197.129639,73.4526367 C197.207764,73.3598628 197.302978,73.3134766 197.415283,73.3134766 L199.78833,73.3134766 C200.056886,73.3134766 200.24121,73.3500973 200.341309,73.4233398 C200.441407,73.4965824 200.491455,73.6259756 200.491455,73.8115234 C200.491455,73.9824227 200.438965,74.1069332 200.333984,74.1850586 C200.229003,74.263184 200.066651,74.3022461 199.846924,74.3022461 L198.814209,74.3022461 L199.605225,80.125 Z M210.496338,81.1577148 C211.248295,81.1577148 211.864744,80.9196801 212.345703,80.4436035 C212.826663,79.9675269 213.067139,79.3608435 213.067139,78.6235352 C213.067139,77.8862268 212.825442,77.277102 212.342041,76.7961426 C211.85864,76.3151831 211.243412,76.074707 210.496338,76.074707 C209.749264,76.074707 209.135256,76.3151831 208.654297,76.7961426 C208.173337,77.277102 207.932861,77.8862268 207.932861,78.6235352 C207.932861,79.3657264 208.172117,79.9736304 208.650635,80.4472656 C209.129153,80.9209008 209.744381,81.1577148 210.496338,81.1577148 Z M214.341553,78.6235352 C214.341553,79.6684623 213.985111,80.5229459 213.272217,81.1870117 C212.559323,81.8510775 211.634039,82.1831055 210.496338,82.1831055 C209.36352,82.1831055 208.440677,81.8510775 207.727783,81.1870117 C207.014889,80.5229459 206.658447,79.6684623 206.658447,78.6235352 C206.658447,77.5786081 207.014889,76.7253451 207.727783,76.0637207 C208.440677,75.4020963 209.36352,75.0712891 210.496338,75.0712891 C211.629156,75.0712891 212.553219,75.403317 213.268555,76.0673828 C213.98389,76.7314486 214.341553,77.5834909 214.341553,78.6235352 Z M218.780029,80.9672852 L221.21167,80.9672852 C221.402101,80.9672852 221.54248,81.007568 221.632812,81.0881348 C221.723145,81.1687016 221.768311,81.2968741 221.768311,81.4726562 C221.768311,81.6728526 221.725586,81.8107906 221.640137,81.8864746 C221.554687,81.9621586 221.397218,82 221.167725,82 L216.377686,82 C216.187255,82 216.043213,81.9560551 215.945557,81.8681641 C215.8479,81.780273 215.799072,81.6484384 215.799072,81.4726562 C215.799072,81.301757 215.849121,81.1748051 215.949219,81.0917969 C216.049317,81.0087886 216.204345,80.9672852 216.414307,80.9672852 L217.688721,80.9672852 L217.688721,76.2724609 L217.190674,76.2724609 C216.717039,76.2724609 216.421631,76.2346195 216.304443,76.1589355 C216.187255,76.0832516 216.128662,75.9453135 216.128662,75.7451172 C216.128662,75.5742179 216.176269,75.4460453 216.271484,75.3605957 C216.3667,75.2751461 216.511962,75.2324219 216.707275,75.2324219 L218.377197,75.2324219 C218.509034,75.2324219 218.609131,75.2580564 218.67749,75.3093262 C218.74585,75.360596 218.780029,75.4350581 218.780029,75.5327148 L218.780029,76.777832 C219.243899,76.1967744 219.727292,75.7646499 220.230225,75.4814453 C220.733157,75.1982408 221.275144,75.0566406 221.856201,75.0566406 C222.290774,75.0566406 222.642333,75.1445304 222.910889,75.3203125 C223.179445,75.4960946 223.313721,75.7231431 223.313721,76.0014648 C223.313721,76.1821298 223.246583,76.3420403 223.112305,76.4812012 C222.978027,76.620362 222.830323,76.6899414 222.669189,76.6899414 C222.556884,76.6899414 222.367677,76.6154793 222.101562,76.4665527 C221.835448,76.3176262 221.597413,76.2431641 221.387451,76.2431641 C221.00659,76.2431641 220.604983,76.3786608 220.182617,76.6496582 C219.760252,76.9206557 219.292727,77.3491182 218.780029,77.9350586 L218.780029,80.9672852 Z M228.008545,73.4672852 L226.763428,73.4672852 C226.289793,73.4672852 225.993165,73.4294437 225.873535,73.3537598 C225.753906,73.2780758 225.694092,73.1401377 225.694092,72.9399414 C225.694092,72.7641593 225.74414,72.6323247 225.844238,72.5444336 C225.944336,72.4565425 226.089599,72.4125977 226.280029,72.4125977 L228.697021,72.4125977 C228.828858,72.4125977 228.931396,72.4394529 229.004639,72.4931641 C229.077881,72.5468753 229.114502,72.6201167 229.114502,72.7128906 L229.114502,80.9672852 L231.414307,80.9672852 C231.599854,80.9672852 231.735351,81.007568 231.820801,81.0881348 C231.90625,81.1687016 231.948975,81.2968741 231.948975,81.4726562 C231.948975,81.6728526 231.907471,81.8107906 231.824463,81.8864746 C231.741455,81.9621586 231.585206,82 231.355713,82 L225.950439,82 C225.760009,82 225.614747,81.9560551 225.514648,81.8681641 C225.41455,81.780273 225.364502,81.6484384 225.364502,81.4726562 C225.364502,81.301757 225.415771,81.1748051 225.518311,81.0917969 C225.62085,81.0087886 225.774657,80.9672852 225.979736,80.9672852 L228.008545,80.9672852 L228.008545,73.4672852 Z M239.705322,82 C239.602783,82 239.530762,81.9743655 239.489258,81.9230957 C239.447754,81.8718259 239.427002,81.77295 239.427002,81.6264648 L239.427002,81.0258789 C239.134032,81.3920917 238.767824,81.6765127 238.328369,81.8791504 C237.888914,82.0817881 237.412844,82.1831055 236.900146,82.1831055 C235.97729,82.1831055 235.204593,81.8547396 234.582031,81.197998 C233.95947,80.5412565 233.648193,79.7246143 233.648193,78.7480469 C233.648193,77.7372996 233.980221,76.8962436 234.644287,76.2248535 C235.308353,75.5534634 236.135981,75.2177734 237.127197,75.2177734 C237.630129,75.2177734 238.081785,75.3068839 238.482178,75.4851074 C238.88257,75.663331 239.226805,75.9257795 239.514893,76.2724609 L239.514893,73.4672852 L239.126709,73.4672852 C238.701902,73.4672852 238.427247,73.4294437 238.302734,73.3537598 C238.178222,73.2780758 238.115967,73.1401377 238.115967,72.9399414 C238.115967,72.7641593 238.166015,72.6323247 238.266113,72.5444336 C238.366211,72.4565425 238.511474,72.4125977 238.701904,72.4125977 L240.203369,72.4125977 C240.349854,72.4125977 240.456054,72.4370115 240.521973,72.4858398 C240.587891,72.5346682 240.62085,72.610351 240.62085,72.7128906 L240.62085,80.9672852 L240.950439,80.9672852 C241.189698,80.9672852 241.363037,81.007568 241.470459,81.0881348 C241.577881,81.1687016 241.631592,81.2968741 241.631592,81.4726562 C241.631592,81.6386727 241.585206,81.7680659 241.492432,81.8608398 C241.399658,81.9536137 241.275147,82 241.118896,82 L239.705322,82 Z M234.907959,78.7114258 C234.907959,79.3852573 235.125242,79.9370096 235.559814,80.3666992 C235.994387,80.7963889 236.546139,81.0112305 237.215088,81.0112305 C237.888919,81.0112305 238.443113,80.787844 238.877686,80.3410645 C239.312258,79.8942849 239.529541,79.3266636 239.529541,78.6381836 C239.529541,77.9594693 239.313479,77.4003928 238.881348,76.9609375 C238.449217,76.5214822 237.893802,76.3017578 237.215088,76.3017578 C236.526608,76.3017578 235.969973,76.5239236 235.545166,76.9682617 C235.120359,77.4125999 234.907959,77.9936488 234.907959,78.7114258 Z" id="greetWorld();" fill="#EF95EF"></path>
        <path d="M245,52 L245,61" id="Line-4-Copy" stroke="#4A4A4A" stroke-linecap="square" transform="translate(245.000000, 56.500000) scale(-1, -1) translate(-245.000000, -56.500000) "></path>
        <path d="M151,52 L151,61" id="Line-4-Copy-2" stroke="#4A4A4A" stroke-linecap="square" transform="translate(151.000000, 56.500000) scale(-1, -1) translate(-151.000000, -56.500000) "></path>
        <path d="M152,51 L246,51" id="Line-5-Copy" stroke="#4A4A4A" stroke-linecap="square" transform="translate(199.000000, 51.000000) scale(-1, -1) translate(-199.000000, -51.000000) "></path>
        <path d="M199,40 L199,51" id="Line-6-Copy" stroke="#4A4A4A" stroke-linecap="square" transform="translate(199.000000, 45.500000) scale(-1, -1) translate(-199.000000, -45.500000) "></path>
        <path d="M170.309814,32 L170.309814,24.1313477 L171.765381,24.1313477 L171.765381,32 L170.309814,32 Z M174.966553,30.8344727 L176.008545,30.8344727 C176.907312,30.8344727 177.591225,30.5990421 178.060303,30.1281738 C178.529381,29.6573056 178.763916,28.9707076 178.763916,28.0683594 C178.763916,27.1015577 178.522219,26.3988466 178.038818,25.9602051 C177.555418,25.5215636 176.826746,25.3022461 175.852783,25.3022461 L174.966553,25.3022461 L174.966553,30.8344727 Z M173.510986,32 L173.510986,24.1313477 L175.78833,24.1313477 C176.475834,24.1313477 177.091713,24.2101229 177.635986,24.3676758 C178.18026,24.5252287 178.648436,24.7624496 179.040527,25.0793457 C179.432619,25.3962418 179.733397,25.8044409 179.942871,26.3039551 C180.152345,26.8034693 180.25708,27.3808561 180.25708,28.0361328 C180.25708,29.307298 179.873946,30.2857225 179.107666,30.9714355 C178.341386,31.6571486 177.279711,32 175.922607,32 L173.510986,32 Z M181.637451,32 L181.637451,24.1313477 L186.406982,24.1313477 L186.3479,25.2861328 L183.093018,25.2861328 L183.093018,27.3164062 L186.186768,27.3164062 L186.186768,28.4711914 L183.093018,28.4711914 L183.093018,30.8398438 L186.466064,30.8398438 L186.417725,32 L181.637451,32 Z M187.824951,32 L187.824951,24.1313477 L189.371826,24.1313477 C189.651124,24.5681988 190.218664,25.4490494 191.074463,26.7739258 C191.930261,28.0988022 192.451252,28.9044582 192.637451,29.190918 C192.691162,29.2732752 192.783365,29.412027 192.914062,29.6071777 C193.04476,29.8023284 193.136963,29.9410803 193.190674,30.0234375 C193.165609,28.7952413 193.153076,28.1578778 193.153076,28.1113281 L193.153076,24.1313477 L194.479736,24.1313477 L194.479736,32 L192.911377,32 L189.361084,26.4677734 L189.103271,26.043457 C189.131917,26.9887743 189.14624,27.6529929 189.14624,28.0361328 L189.14624,32 L187.824951,32 Z M197.69165,32 L197.69165,25.296875 L195.398193,25.296875 L195.398193,24.1313477 L201.435303,24.1313477 L201.435303,25.296875 L199.152588,25.296875 L199.152588,32 L197.69165,32 Z M202.396729,32 L202.396729,24.1313477 L203.852295,24.1313477 L203.852295,32 L202.396729,32 Z M205.592529,32 L205.592529,24.1313477 L210.249268,24.1313477 L210.195557,25.2861328 L207.037354,25.2861328 L207.037354,27.5205078 L210.039795,27.5205078 L210.039795,28.6645508 L207.037354,28.6645508 L207.037354,32 L205.592529,32 Z M211.554443,32 L211.554443,24.1313477 L213.01001,24.1313477 L213.01001,32 L211.554443,32 Z M214.750244,32 L214.750244,24.1313477 L219.519775,24.1313477 L219.460693,25.2861328 L216.205811,25.2861328 L216.205811,27.3164062 L219.299561,27.3164062 L219.299561,28.4711914 L216.205811,28.4711914 L216.205811,30.8398438 L219.578857,30.8398438 L219.530518,32 L214.750244,32 Z M220.900146,32 L220.900146,24.1098633 L223.81665,24.1098633 C224.214113,24.1098633 224.558755,24.1277667 224.850586,24.1635742 C225.142417,24.1993817 225.419921,24.2647293 225.683105,24.3596191 C225.94629,24.4545089 226.159342,24.5825187 226.322266,24.7436523 C226.48519,24.904786 226.614095,25.1151517 226.708984,25.3747559 C226.803874,25.63436 226.851318,25.9414045 226.851318,26.2958984 C226.851318,27.3414766 226.376876,28.0289697 225.427979,28.3583984 C225.621339,28.576824 225.861245,28.9814424 226.147705,29.5722656 L227.318604,32 L225.72876,32 L224.810303,29.9428711 C224.46297,29.2052372 224.248129,28.7683926 224.165771,28.6323242 C224.104899,28.6287435 223.90259,28.6269531 223.558838,28.6269531 L222.3396,28.6162109 L222.3396,32 L220.900146,32 Z M223.945557,27.5742188 C224.504153,27.5742188 224.905191,27.4748545 225.148682,27.276123 C225.392172,27.0773916 225.513916,26.7578147 225.513916,26.3173828 C225.513916,25.9306621 225.390382,25.645997 225.143311,25.4633789 C224.896239,25.2807608 224.518476,25.1894531 224.01001,25.1894531 L222.3396,25.1894531 L222.3396,27.5688477 C222.393311,27.5688477 222.660072,27.5697428 223.139893,27.5715332 C223.619713,27.5733236 223.888265,27.5742188 223.945557,27.5742188 Z" id="IDENTIFIER" fill="#4A4A4A"></path>
        <path d="M247.989014,73.3867188 C247.989014,73.4892583 247.907227,73.7102034 247.743652,74.0495605 C247.580077,74.3889177 247.456788,74.6586904 247.373779,74.8588867 C247.041746,75.6352578 246.806153,76.3456999 246.666992,76.9902344 C246.527831,77.6347688 246.458252,78.3037075 246.458252,78.9970703 C246.458252,79.6367219 246.516845,80.2556122 246.634033,80.8537598 C246.751221,81.4519073 246.929442,82.0488251 247.168701,82.6445312 C247.290772,82.9667985 247.458007,83.3464334 247.67041,83.7834473 C247.882814,84.2204612 247.989014,84.4902339 247.989014,84.5927734 C247.989014,84.7001958 247.965821,84.7844235 247.919434,84.845459 C247.873047,84.9064944 247.810791,84.9370117 247.732666,84.9370117 C247.581298,84.9370117 247.412843,84.8576668 247.227295,84.6989746 C247.041747,84.5402824 246.826906,84.285158 246.582764,83.9335938 C246.0603,83.1865197 245.669679,82.4028361 245.410889,81.5825195 C245.152098,80.7622029 245.022705,79.9003951 245.022705,78.9970703 C245.022705,78.1718709 245.128905,77.3845252 245.341309,76.6350098 C245.553712,75.8854943 245.877195,75.1591832 246.311768,74.4560547 C246.594972,73.9921852 246.8562,73.6430676 247.095459,73.4086914 C247.334718,73.1743152 247.547118,73.0571289 247.732666,73.0571289 C247.810791,73.0571289 247.873047,73.0876462 247.919434,73.1486816 C247.965821,73.2097171 247.989014,73.289062 247.989014,73.3867188 Z" id="Path" fill="#9B9B9B" fill-rule="nonzero"></path>
        <path d="M254.009521,84.5927734 C254.009521,84.4951167 254.092528,84.2790544 254.258545,83.9445801 C254.424561,83.6101057 254.551513,83.3427744 254.639404,83.1425781 C254.966554,82.3613242 255.200927,81.64722 255.342529,81.0002441 C255.484132,80.3532682 255.554932,79.6855503 255.554932,78.9970703 C255.554932,78.3720672 255.495118,77.7580597 255.375488,77.1550293 C255.255859,76.5519989 255.073976,75.9477569 254.829834,75.3422852 C254.70288,75.0200179 254.534425,74.640383 254.324463,74.2033691 C254.114501,73.7663552 254.009521,73.4941412 254.009521,73.3867188 C254.009521,73.289062 254.033935,73.2097171 254.082764,73.1486816 C254.131592,73.0876462 254.195068,73.0571289 254.273193,73.0571289 C254.434327,73.0571289 254.606444,73.1364738 254.789551,73.295166 C254.972657,73.4538582 255.186278,73.7065412 255.43042,74.0532227 C255.952883,74.7954139 256.343505,75.5790974 256.602295,76.4042969 C256.861085,77.2294963 256.990479,78.0937455 256.990479,78.9970703 C256.990479,79.8222698 256.881837,80.6108361 256.664551,81.362793 C256.447265,82.1147499 256.12134,82.8422816 255.686768,83.5454102 C255.384032,84.0239282 255.119142,84.3754872 254.89209,84.6000977 C254.665038,84.8247082 254.458741,84.9370117 254.273193,84.9370117 C254.195068,84.9370117 254.131592,84.9052738 254.082764,84.8417969 C254.033935,84.77832 254.009521,84.695313 254.009521,84.5927734 Z" id="Path" fill="#9B9B9B" fill-rule="nonzero"></path>
        <path d="M263.5896,80.2128906 C263.633545,80.051757 263.684814,79.949219 263.743408,79.9052734 C263.802002,79.8613279 263.902099,79.8393555 264.043701,79.8393555 L265.559814,79.8393555 C265.623291,79.8393555 265.675781,79.8540038 265.717285,79.8833008 C265.758789,79.9125978 265.779541,79.9492185 265.779541,79.9931641 C265.779541,80.0078126 265.774658,80.0346678 265.764893,80.0737305 C265.755127,80.1127932 265.740479,80.1494139 265.720947,80.1835938 L263.831299,84.1166992 C263.792236,84.1948246 263.749512,84.2509764 263.703125,84.2851562 C263.656738,84.3193361 263.599366,84.3364258 263.531006,84.3364258 C263.491943,84.3364258 263.461426,84.3352051 263.439453,84.3327637 C263.41748,84.3303223 263.39917,84.3266602 263.384521,84.3217773 L262.901123,84.1459961 C262.82788,84.1166991 262.772949,84.0800783 262.736328,84.0361328 C262.699707,83.9921873 262.681396,83.9433596 262.681396,83.8896484 C262.681396,83.8701171 262.682617,83.8481447 262.685059,83.8237305 C262.6875,83.7993163 262.696045,83.7602542 262.710693,83.706543 L263.5896,80.2128906 Z" id="Path" fill="#9B9B9B" fill-rule="nonzero"></path>
        <path d="M263.025635,76.7485352 C263.025635,76.3676739 263.15869,76.055177 263.424805,75.8110352 C263.690919,75.5668933 264.036375,75.4448242 264.461182,75.4448242 C264.895754,75.4448242 265.247313,75.5656726 265.515869,75.807373 C265.784425,76.0490735 265.918701,76.362791 265.918701,76.7485352 C265.918701,77.1342793 265.784425,77.4479968 265.515869,77.6896973 C265.247313,77.9313977 264.895754,78.0522461 264.461182,78.0522461 C264.031492,78.0522461 263.684816,77.9326184 263.421143,77.6933594 C263.157469,77.4541004 263.025635,77.1391621 263.025635,76.7485352 Z" id="Path" fill="#9B9B9B" fill-rule="nonzero"></path>
    </g>
</svg>